<mxfile host="app.diagrams.net" modified="2024-06-19T10:58:26.089Z" agent="Mozilla/5.0 (Windows NT 10.0; Win64; x64) AppleWebKit/537.36 (KHTML, like Gecko) Chrome/125.0.0.0 Safari/537.36" etag="rYITT8jgSQ_C2OWzSxe6" version="24.5.4" type="github" pages="3">
  <diagram name="Page-1" id="74e2e168-ea6b-b213-b513-2b3c1d86103e">
    <mxGraphModel dx="1715" dy="1833" grid="1" gridSize="10" guides="1" tooltips="1" connect="1" arrows="1" fold="1" page="1" pageScale="1" pageWidth="1100" pageHeight="850" background="none" math="0" shadow="0">
      <root>
        <mxCell id="0" />
        <mxCell id="1" parent="0" />
        <mxCell id="77e6c97f196da883-1" value="Pool" style="swimlane;html=1;childLayout=stackLayout;startSize=20;rounded=0;shadow=0;labelBackgroundColor=none;strokeWidth=1;fontFamily=Verdana;fontSize=8;align=center;dashed=1;fillColor=none;strokeColor=#6c8ebf;gradientColor=none;" parent="1" vertex="1">
          <mxGeometry x="70" y="-21" width="1170" height="650" as="geometry" />
        </mxCell>
        <mxCell id="77e6c97f196da883-2" value="客户端" style="swimlane;html=1;startSize=20;dashed=1;fillColor=none;strokeColor=#6c8ebf;gradientColor=none;" parent="77e6c97f196da883-1" vertex="1">
          <mxGeometry y="20" width="300" height="630" as="geometry" />
        </mxCell>
        <mxCell id="dWRoaltd0C7rDY0c2W8I-29" value="&lt;span style=&quot;font-size: 15px;&quot;&gt;现有逻辑&lt;/span&gt;" style="rounded=0;whiteSpace=wrap;html=1;" parent="77e6c97f196da883-2" vertex="1">
          <mxGeometry x="30" y="374.5" width="80" height="49" as="geometry" />
        </mxCell>
        <mxCell id="dWRoaltd0C7rDY0c2W8I-24" value="&lt;span style=&quot;font-size: 15px;&quot;&gt;读取服务端下发红点+微聊未读消息数&lt;/span&gt;" style="rounded=0;whiteSpace=wrap;html=1;fillColor=#f8cecc;strokeColor=#b85450;" parent="77e6c97f196da883-2" vertex="1">
          <mxGeometry x="145" y="471" width="130" height="59" as="geometry" />
        </mxCell>
        <mxCell id="v9bGkGKGlEvhPHJINWqN-41" value="&lt;font style=&quot;font-size: 15px;&quot;&gt;1、开始&lt;/font&gt;" style="ellipse;whiteSpace=wrap;html=1;" vertex="1" parent="77e6c97f196da883-2">
          <mxGeometry x="100" y="41" width="100" height="60" as="geometry" />
        </mxCell>
        <mxCell id="77e6c97f196da883-8" value="&lt;font style=&quot;font-size: 15px;&quot;&gt;启动app&lt;/font&gt;" style="whiteSpace=wrap;html=1;" parent="77e6c97f196da883-2" vertex="1">
          <mxGeometry x="100" y="148" width="100" height="60" as="geometry" />
        </mxCell>
        <mxCell id="v9bGkGKGlEvhPHJINWqN-44" value="" style="edgeStyle=orthogonalEdgeStyle;rounded=0;orthogonalLoop=1;jettySize=auto;html=1;" edge="1" parent="77e6c97f196da883-2" source="v9bGkGKGlEvhPHJINWqN-41" target="77e6c97f196da883-8">
          <mxGeometry relative="1" as="geometry" />
        </mxCell>
        <mxCell id="dWRoaltd0C7rDY0c2W8I-16" style="edgeStyle=orthogonalEdgeStyle;rounded=0;orthogonalLoop=1;jettySize=auto;html=1;entryX=1;entryY=0.5;entryDx=0;entryDy=0;exitX=0.5;exitY=1;exitDx=0;exitDy=0;" parent="77e6c97f196da883-1" source="dWRoaltd0C7rDY0c2W8I-9" target="dWRoaltd0C7rDY0c2W8I-14" edge="1">
          <mxGeometry relative="1" as="geometry" />
        </mxCell>
        <mxCell id="v9bGkGKGlEvhPHJINWqN-3" value="" style="edgeStyle=orthogonalEdgeStyle;rounded=0;orthogonalLoop=1;jettySize=auto;html=1;" edge="1" parent="77e6c97f196da883-1" source="dWRoaltd0C7rDY0c2W8I-2" target="v9bGkGKGlEvhPHJINWqN-2">
          <mxGeometry relative="1" as="geometry" />
        </mxCell>
        <mxCell id="v9bGkGKGlEvhPHJINWqN-4" value="否" style="edgeLabel;html=1;align=center;verticalAlign=middle;resizable=0;points=[];" vertex="1" connectable="0" parent="v9bGkGKGlEvhPHJINWqN-3">
          <mxGeometry y="1" relative="1" as="geometry">
            <mxPoint as="offset" />
          </mxGeometry>
        </mxCell>
        <mxCell id="77e6c97f196da883-4" value="平台服务端" style="swimlane;html=1;startSize=20;dashed=1;fillColor=none;strokeColor=#6c8ebf;gradientColor=none;" parent="77e6c97f196da883-1" vertex="1">
          <mxGeometry x="300" y="20" width="205.00000000000006" height="630" as="geometry" />
        </mxCell>
        <mxCell id="v9bGkGKGlEvhPHJINWqN-5" value="" style="edgeStyle=orthogonalEdgeStyle;rounded=0;orthogonalLoop=1;jettySize=auto;html=1;" edge="1" parent="77e6c97f196da883-4" source="v9bGkGKGlEvhPHJINWqN-2" target="dWRoaltd0C7rDY0c2W8I-14">
          <mxGeometry relative="1" as="geometry" />
        </mxCell>
        <mxCell id="v9bGkGKGlEvhPHJINWqN-2" value="平台服务端现有&lt;br&gt;逻辑" style="rounded=0;whiteSpace=wrap;html=1;" vertex="1" parent="77e6c97f196da883-4">
          <mxGeometry x="60" y="258" width="110" height="50" as="geometry" />
        </mxCell>
        <mxCell id="dWRoaltd0C7rDY0c2W8I-20" style="edgeStyle=orthogonalEdgeStyle;rounded=0;orthogonalLoop=1;jettySize=auto;html=1;exitX=0;exitY=0.5;exitDx=0;exitDy=0;entryX=1;entryY=0.5;entryDx=0;entryDy=0;" parent="77e6c97f196da883-4" source="dWRoaltd0C7rDY0c2W8I-14" target="dWRoaltd0C7rDY0c2W8I-19" edge="1">
          <mxGeometry relative="1" as="geometry" />
        </mxCell>
        <mxCell id="dWRoaltd0C7rDY0c2W8I-19" value="是否灰度" style="rhombus;whiteSpace=wrap;html=1;" parent="77e6c97f196da883-4" vertex="1">
          <mxGeometry x="-140" y="369" width="100" height="60" as="geometry" />
        </mxCell>
        <mxCell id="dWRoaltd0C7rDY0c2W8I-32" value="结束" style="ellipse;whiteSpace=wrap;html=1;" parent="77e6c97f196da883-4" vertex="1">
          <mxGeometry x="-142.5" y="558" width="105" height="60" as="geometry" />
        </mxCell>
        <mxCell id="dWRoaltd0C7rDY0c2W8I-14" value="&lt;font style=&quot;font-size: 14px;&quot;&gt;返回客户端灰度和红点状态&lt;/font&gt;" style="whiteSpace=wrap;html=1;fillColor=#f8cecc;strokeColor=#b85450;" parent="77e6c97f196da883-4" vertex="1">
          <mxGeometry x="60" y="369" width="110" height="60" as="geometry" />
        </mxCell>
        <mxCell id="77e6c97f196da883-5" value="社区服务端" style="swimlane;html=1;startSize=20;dashed=1;fillColor=none;strokeColor=#6c8ebf;gradientColor=none;" parent="77e6c97f196da883-1" vertex="1">
          <mxGeometry x="505.00000000000006" y="20" width="200" height="630" as="geometry" />
        </mxCell>
        <mxCell id="dWRoaltd0C7rDY0c2W8I-10" value="" style="edgeStyle=orthogonalEdgeStyle;rounded=0;orthogonalLoop=1;jettySize=auto;html=1;" parent="77e6c97f196da883-5" source="dWRoaltd0C7rDY0c2W8I-2" target="dWRoaltd0C7rDY0c2W8I-9" edge="1">
          <mxGeometry relative="1" as="geometry" />
        </mxCell>
        <mxCell id="dWRoaltd0C7rDY0c2W8I-13" value="是" style="edgeLabel;html=1;align=center;verticalAlign=middle;resizable=0;points=[];" parent="dWRoaltd0C7rDY0c2W8I-10" vertex="1" connectable="0">
          <mxGeometry x="0.32" y="2" relative="1" as="geometry">
            <mxPoint x="-23" y="-13" as="offset" />
          </mxGeometry>
        </mxCell>
        <mxCell id="dWRoaltd0C7rDY0c2W8I-2" value="&lt;font style=&quot;font-size: 15px;&quot;&gt;是否灰度&lt;/font&gt;" style="rhombus;whiteSpace=wrap;html=1;" parent="77e6c97f196da883-5" vertex="1">
          <mxGeometry x="-150" y="148" width="120" height="60" as="geometry" />
        </mxCell>
        <mxCell id="dWRoaltd0C7rDY0c2W8I-9" value="&lt;font color=&quot;#ff430a&quot;&gt;&lt;b&gt;（新增接口）&lt;br&gt;&lt;/b&gt;&lt;/font&gt;检索并返回红点状态" style="whiteSpace=wrap;html=1;fillColor=#f8cecc;strokeColor=#b85450;" parent="77e6c97f196da883-5" vertex="1">
          <mxGeometry x="40" y="148" width="120" height="60" as="geometry" />
        </mxCell>
        <mxCell id="77e6c97f196da883-6" value="社区前端" style="swimlane;html=1;startSize=20;dashed=1;fillColor=none;strokeColor=#6c8ebf;gradientColor=none;" parent="77e6c97f196da883-1" vertex="1">
          <mxGeometry x="705" y="20" width="230" height="630" as="geometry" />
        </mxCell>
        <mxCell id="77e6c97f196da883-7" value="微聊服务端" style="swimlane;html=1;startSize=20;dashed=1;fillColor=none;strokeColor=#6c8ebf;gradientColor=none;" parent="77e6c97f196da883-1" vertex="1">
          <mxGeometry x="935" y="20" width="230" height="630" as="geometry">
            <mxRectangle x="960" y="20" width="40" height="860" as="alternateBounds" />
          </mxGeometry>
        </mxCell>
        <mxCell id="dWRoaltd0C7rDY0c2W8I-34" style="edgeStyle=orthogonalEdgeStyle;rounded=0;orthogonalLoop=1;jettySize=auto;html=1;exitX=0.5;exitY=1;exitDx=0;exitDy=0;entryX=0;entryY=0.5;entryDx=0;entryDy=0;" parent="77e6c97f196da883-1" source="dWRoaltd0C7rDY0c2W8I-29" target="dWRoaltd0C7rDY0c2W8I-32" edge="1">
          <mxGeometry relative="1" as="geometry" />
        </mxCell>
        <mxCell id="dWRoaltd0C7rDY0c2W8I-30" style="edgeStyle=orthogonalEdgeStyle;rounded=0;orthogonalLoop=1;jettySize=auto;html=1;exitX=0;exitY=0.5;exitDx=0;exitDy=0;entryX=1;entryY=0.5;entryDx=0;entryDy=0;" parent="77e6c97f196da883-1" source="dWRoaltd0C7rDY0c2W8I-19" target="dWRoaltd0C7rDY0c2W8I-29" edge="1">
          <mxGeometry relative="1" as="geometry" />
        </mxCell>
        <mxCell id="dWRoaltd0C7rDY0c2W8I-31" value="否" style="edgeLabel;html=1;align=center;verticalAlign=middle;resizable=0;points=[];" parent="dWRoaltd0C7rDY0c2W8I-30" vertex="1" connectable="0">
          <mxGeometry x="-0.419" y="1" relative="1" as="geometry">
            <mxPoint as="offset" />
          </mxGeometry>
        </mxCell>
        <mxCell id="dWRoaltd0C7rDY0c2W8I-33" style="edgeStyle=orthogonalEdgeStyle;rounded=0;orthogonalLoop=1;jettySize=auto;html=1;exitX=0.5;exitY=1;exitDx=0;exitDy=0;entryX=0.5;entryY=0;entryDx=0;entryDy=0;" parent="77e6c97f196da883-1" source="dWRoaltd0C7rDY0c2W8I-24" target="dWRoaltd0C7rDY0c2W8I-32" edge="1">
          <mxGeometry relative="1" as="geometry" />
        </mxCell>
        <mxCell id="dWRoaltd0C7rDY0c2W8I-25" style="edgeStyle=orthogonalEdgeStyle;rounded=0;orthogonalLoop=1;jettySize=auto;html=1;exitX=0.5;exitY=1;exitDx=0;exitDy=0;" parent="77e6c97f196da883-1" source="dWRoaltd0C7rDY0c2W8I-19" target="dWRoaltd0C7rDY0c2W8I-24" edge="1">
          <mxGeometry relative="1" as="geometry" />
        </mxCell>
        <mxCell id="dWRoaltd0C7rDY0c2W8I-26" value="是" style="edgeLabel;html=1;align=center;verticalAlign=middle;resizable=0;points=[];" parent="dWRoaltd0C7rDY0c2W8I-25" vertex="1" connectable="0">
          <mxGeometry x="-0.2923" y="1" relative="1" as="geometry">
            <mxPoint as="offset" />
          </mxGeometry>
        </mxCell>
        <mxCell id="dWRoaltd0C7rDY0c2W8I-3" value="" style="edgeStyle=orthogonalEdgeStyle;rounded=0;orthogonalLoop=1;jettySize=auto;html=1;entryX=0;entryY=0.5;entryDx=0;entryDy=0;" parent="77e6c97f196da883-1" source="77e6c97f196da883-8" target="dWRoaltd0C7rDY0c2W8I-2" edge="1">
          <mxGeometry relative="1" as="geometry">
            <mxPoint x="330" y="198" as="targetPoint" />
          </mxGeometry>
        </mxCell>
        <mxCell id="dWRoaltd0C7rDY0c2W8I-6" value="请求红点接口（已有）&lt;div&gt;灰度接口（已有）&lt;/div&gt;" style="edgeLabel;html=1;align=center;verticalAlign=middle;resizable=0;points=[];horizontal=1;" parent="dWRoaltd0C7rDY0c2W8I-3" vertex="1" connectable="0">
          <mxGeometry relative="1" as="geometry">
            <mxPoint x="10" y="-15" as="offset" />
          </mxGeometry>
        </mxCell>
      </root>
    </mxGraphModel>
  </diagram>
  <diagram id="bO5f8XqbIFU7siPStphd" name="第 2 页">
    <mxGraphModel grid="1" page="1" gridSize="10" guides="1" tooltips="1" connect="1" arrows="1" fold="1" pageScale="1" pageWidth="827" pageHeight="1169" math="0" shadow="0">
      <root>
        <mxCell id="0" />
        <mxCell id="1" parent="0" />
      </root>
    </mxGraphModel>
  </diagram>
  <diagram id="TUlc20PZjTYPXe-3Jb44" name="第 3 页">
    <mxGraphModel grid="1" page="1" gridSize="10" guides="1" tooltips="1" connect="1" arrows="1" fold="1" pageScale="1" pageWidth="827" pageHeight="1169" math="0" shadow="0">
      <root>
        <mxCell id="0" />
        <mxCell id="1" parent="0" />
      </root>
    </mxGraphModel>
  </diagram>
</mxfile>
